<mxfile host="app.diagrams.net" modified="2024-04-30T16:15:21.929Z" agent="Mozilla/5.0 (Windows NT 10.0; Win64; x64) AppleWebKit/537.36 (KHTML, like Gecko) Chrome/124.0.0.0 Safari/537.36 Edg/124.0.0.0" etag="kUA9rhYS3QQJ1CA6TH5o" version="24.2.5" type="device">
  <diagram name="Pagina-1" id="O41BH9lygT_xZa6iwpsy">
    <mxGraphModel dx="763" dy="390" grid="1" gridSize="10" guides="1" tooltips="1" connect="1" arrows="1" fold="1" page="1" pageScale="1" pageWidth="827" pageHeight="1169" math="0" shadow="0">
      <root>
        <mxCell id="0" />
        <mxCell id="1" parent="0" />
        <mxCell id="urpqnEH7JHFfvMmyBaaK-6" style="edgeStyle=orthogonalEdgeStyle;rounded=0;orthogonalLoop=1;jettySize=auto;html=1;exitX=1;exitY=0.5;exitDx=0;exitDy=0;entryX=0.5;entryY=0;entryDx=0;entryDy=0;" edge="1" parent="1" source="urpqnEH7JHFfvMmyBaaK-2" target="urpqnEH7JHFfvMmyBaaK-5">
          <mxGeometry relative="1" as="geometry" />
        </mxCell>
        <mxCell id="urpqnEH7JHFfvMmyBaaK-2" value="Mercato del lavoro" style="ellipse;whiteSpace=wrap;html=1;" vertex="1" parent="1">
          <mxGeometry x="380" y="50" width="120" height="80" as="geometry" />
        </mxCell>
        <mxCell id="urpqnEH7JHFfvMmyBaaK-8" style="edgeStyle=orthogonalEdgeStyle;rounded=0;orthogonalLoop=1;jettySize=auto;html=1;exitX=0.5;exitY=1;exitDx=0;exitDy=0;" edge="1" parent="1" source="urpqnEH7JHFfvMmyBaaK-3" target="urpqnEH7JHFfvMmyBaaK-7">
          <mxGeometry relative="1" as="geometry" />
        </mxCell>
        <mxCell id="urpqnEH7JHFfvMmyBaaK-3" value="Lavoro = Attività manuale e intellettuale che produce progresso per l&#39;economia e società" style="rounded=0;whiteSpace=wrap;html=1;" vertex="1" parent="1">
          <mxGeometry x="130" y="180" width="180" height="90" as="geometry" />
        </mxCell>
        <mxCell id="urpqnEH7JHFfvMmyBaaK-4" style="edgeStyle=orthogonalEdgeStyle;rounded=0;orthogonalLoop=1;jettySize=auto;html=1;exitX=0;exitY=0.5;exitDx=0;exitDy=0;entryX=0.462;entryY=0.032;entryDx=0;entryDy=0;entryPerimeter=0;" edge="1" parent="1" source="urpqnEH7JHFfvMmyBaaK-2" target="urpqnEH7JHFfvMmyBaaK-3">
          <mxGeometry relative="1" as="geometry" />
        </mxCell>
        <mxCell id="urpqnEH7JHFfvMmyBaaK-10" style="edgeStyle=orthogonalEdgeStyle;rounded=0;orthogonalLoop=1;jettySize=auto;html=1;exitX=0.5;exitY=1;exitDx=0;exitDy=0;" edge="1" parent="1" source="urpqnEH7JHFfvMmyBaaK-5" target="urpqnEH7JHFfvMmyBaaK-9">
          <mxGeometry relative="1" as="geometry" />
        </mxCell>
        <mxCell id="urpqnEH7JHFfvMmyBaaK-5" value="Domanda di lavoro = Dipendente dall&#39;economia e dalle sue componenti&lt;br&gt;&lt;br&gt;Multinazionali = Società con sede legale in un paese e produzioni in vari altri paesi, tendenzialmente per sfruttare la manodopera a basso costo" style="rounded=0;whiteSpace=wrap;html=1;" vertex="1" parent="1">
          <mxGeometry x="550" y="160" width="250" height="130" as="geometry" />
        </mxCell>
        <mxCell id="urpqnEH7JHFfvMmyBaaK-7" value="Monopolio bilaterale = Tra sindacati e lavori&lt;br&gt;&lt;br&gt;Contrattazione collettiva = Contratti nazionali del lavoro&lt;br&gt;&lt;br&gt;Retribuzione = Prezzo prodotto da una prestazione lavorativa secondo le variazioni del mercato del lavoro" style="rounded=0;whiteSpace=wrap;html=1;" vertex="1" parent="1">
          <mxGeometry x="85" y="335" width="270" height="160" as="geometry" />
        </mxCell>
        <mxCell id="urpqnEH7JHFfvMmyBaaK-9" value="Telelavoro = Lavoro svolto solo da casa&lt;br&gt;&lt;br&gt;Smart working = Lavoro svolto dove si preferisce nelle modalità e nei modi concordati con il datore di lavoro (anche misto)&lt;br&gt;&lt;br&gt;Offerta di lavoro = Disponibilità attiva forze di lavoro in base all&#39;offerta presente sul mercato" style="rounded=0;whiteSpace=wrap;html=1;" vertex="1" parent="1">
          <mxGeometry x="550" y="350" width="250" height="130" as="geometry" />
        </mxCell>
      </root>
    </mxGraphModel>
  </diagram>
</mxfile>
